<?xml version="1.0" standalone="no"?><!DOCTYPE svg PUBLIC "-//W3C//DTD SVG 1.1//EN" "http://www.w3.org/Graphics/SVG/1.1/DTD/svg11.dtd"><svg t="1577934539178" class="icon" viewBox="0 0 1024 1024" version="1.1" xmlns="http://www.w3.org/2000/svg" p-id="1983" xmlns:xlink="http://www.w3.org/1999/xlink" width="48" height="48"><defs><style type="text/css"></style></defs><path d="M634 330.9v-76.3h133.8c58.6 0 106.2 47.4 106.4 106V854c-0.2 58.6-47.8 106-106.4 106H256.2c-58.6 0-106.2-47.4-106.4-106V360.6c0.2-58.6 47.8-106 106.4-106h136.5v76.3H256.2c-16.5 0-29.9 13.3-30.1 29.7V854c0.2 16.5 13.6 29.7 30.1 29.7h511.7c16.5 0 29.9-13.3 30.1-29.7V360.6c-0.2-16.5-13.6-29.7-30.1-29.7H634zM491 712.2L330.5 538.3c-14.8-14.9-14.8-38.9 0-53.8 14.8-14.3 38.2-14.3 53 0l92.3 105.6V64H552v525l87.3-105.6c14.8-14.3 38.2-14.3 53 0 14.8 14.9 14.8 38.9 0 53.8l-159 175c-9.7 11.7-27 13.3-38.6 3.7-1.3-1.2-2.6-2.4-3.7-3.7z" fill="#ffffff" p-id="1984"></path></svg>