<?xml version="1.0" standalone="no"?><!DOCTYPE svg PUBLIC "-//W3C//DTD SVG 1.1//EN" "http://www.w3.org/Graphics/SVG/1.1/DTD/svg11.dtd"><svg t="1577779642350" class="icon" viewBox="0 0 1024 1024" version="1.1" xmlns="http://www.w3.org/2000/svg" p-id="6529" xmlns:xlink="http://www.w3.org/1999/xlink" width="48" height="48"><defs><style type="text/css"></style></defs><path d="M895 256v704c0 35.2-28.8 64-64 64H192c-35.2 0-64-28.8-64-64V64c0-35.2 28.8-64 64-64h448" fill="#FF7835" p-id="6530"></path><path d="M896 256H704c-35.2 0-64-28.8-64-64V0" fill="#FFFFFF" opacity=".8" p-id="6531"></path><path d="M457.1 645.8V815c0 8.8-7.2 16-16 16h-57.7c-8.8 0-16-7.2-16-16V336.2c0-8.8 7.2-16 16-16h155c51.4 0 91.8 15 121.3 44.9s44.2 69.3 44.2 118.2c0 48.9-14.7 88.2-44.2 117.9-29.5 29.7-69.9 44.6-121.3 44.6h-81.3z m0-95c0 8.8 7.2 16 16 16h65.4c25 0 43.9-7.8 56.8-23.3 12.9-15.6 19.3-35.4 19.3-59.5 0-24.6-6.4-44.8-19.2-60.9-12.8-16-31.8-24-57-24H473c-8.8 0-16 7.2-16 16v135.7z" fill="#FFFFFF" p-id="6532"></path></svg>