<?xml version="1.0" standalone="no"?><!DOCTYPE svg PUBLIC "-//W3C//DTD SVG 1.1//EN" "http://www.w3.org/Graphics/SVG/1.1/DTD/svg11.dtd"><svg t="1577779720313" class="icon" viewBox="0 0 1024 1024" version="1.1" xmlns="http://www.w3.org/2000/svg" p-id="9051" xmlns:xlink="http://www.w3.org/1999/xlink" width="48" height="48"><defs><style type="text/css"></style></defs><path d="M771.84 236.16h-12.8l135.04 149.76V236.16h-122.24z" fill="#489ED3" p-id="9052"></path><path d="M732.16 59.52zM732.16 60.16l161.92 176h0.64L732.16 59.52v0.64z" fill="#49A9F2" p-id="9053"></path><path d="M732.16 60.16V192a40.32 40.32 0 0 0 40.32 40.96H896z" fill="#A4D4F9" p-id="9054"></path><path d="M732.16 64zM896 240.64V390.4l-133.76-149.76h13.44a40.32 40.32 0 0 1-40.32-40.96V64H166.4a40.96 40.96 0 0 0-38.4 42.24v811.52a40.96 40.96 0 0 0 38.4 42.24h691.2a40.96 40.96 0 0 0 40.96-40.96V241.28z" fill="#49A9F2" p-id="9055"></path><path d="M660.48 362.88H363.52a27.52 27.52 0 1 0 0 55.68h120.96v343.04a27.52 27.52 0 0 0 55.68 0V418.56h120.32a27.52 27.52 0 1 0 0-55.68z" fill="#FFFFFF" p-id="9056"></path></svg>