<?xml version="1.0" standalone="no"?><!DOCTYPE svg PUBLIC "-//W3C//DTD SVG 1.1//EN" "http://www.w3.org/Graphics/SVG/1.1/DTD/svg11.dtd"><svg t="1577779702899" class="icon" viewBox="0 0 1024 1024" version="1.1" xmlns="http://www.w3.org/2000/svg" p-id="8251" xmlns:xlink="http://www.w3.org/1999/xlink" width="48" height="48"><defs><style type="text/css"></style></defs><path d="M721.066453 0H219.73312A93.866667 93.866667 0 0 0 127.999787 96.426667v831.146666A93.866667 93.866667 0 0 0 219.73312 1024h584.533333A93.866667 93.866667 0 0 0 895.999787 927.573333V183.893333h-85.333334a93.44 93.44 0 0 1-89.6-95.573333z" fill="#71CE52" p-id="8252"></path><path d="M810.666453 183.893333h85.333334L721.066453 0v88.32A93.44 93.44 0 0 0 810.666453 183.893333z" fill="#C1FF99" p-id="8253"></path><path d="M622.506453 308.48h82.346667L554.666453 508.16l162.133334 207.36h-85.333334l-98.986666-134.826667c-5.12-8.106667-11.52-19.2-19.626667-33.28 0 0 0 2.986667-3.84 5.546667a275.2 275.2 0 0 1-13.653333 27.733333l-105.813334 134.826667H307.626453l166.4-207.36-148.906666-199.68h81.92l88.32 128a170.666667 170.666667 0 0 1 9.813333 17.493333 159.573333 159.573333 0 0 1 9.813333 19.626667 152.32 152.32 0 0 1 21.333334-39.253333z" fill="#FFFFFF" p-id="8254"></path></svg>