<?xml version="1.0" standalone="no"?><!DOCTYPE svg PUBLIC "-//W3C//DTD SVG 1.1//EN" "http://www.w3.org/Graphics/SVG/1.1/DTD/svg11.dtd"><svg t="1576827747060" class="icon" viewBox="0 0 1024 1024" version="1.1" xmlns="http://www.w3.org/2000/svg" p-id="2642" xmlns:xlink="http://www.w3.org/1999/xlink" width="48" height="48"><defs><style type="text/css"></style></defs><path d="M510.23644445 9.73255111c-276.66545778 0-503.02862222 226.36202667-503.02862223 503.02862222 0 276.66204445 226.36316445 503.02293333 503.02976 503.02293334 276.66090667 0 503.02293333-226.36088889 503.02293333-503.02293334 0-276.66773333-226.36202667-503.02862222-503.02293333-503.02862222z m12.57358222 150.90688c191.77927111 0 191.77927111 144.62293333 191.77927111 226.36088889 0 81.74592-75.45514667 232.6528-191.77927111 235.79306667-113.18044445 0-191.77927111-150.90574222-191.77927112-235.79306667 0.00113778-81.73909333 0.00113778-226.36088889 191.77927112-226.36088889z m-12.57244445 826.84928c-144.62293333 0-276.66659555-66.02524445-364.69646222-169.76896 12.57358222-31.44248889 28.29425778-66.02524445 50.30343111-84.88618666 47.15633778-37.73098667 188.63217778-100.608 188.63217778-100.608l88.02986666 169.7735111 15.71953778-40.8723911L463.07555555 710.82325333l50.30343112-50.29888 50.30343111 50.29888-22.01031111 53.44597334 12.57813333 40.87352888 91.17240889-166.62755555s141.47470222 62.87587555 188.63559111 100.60686222c22.00462222 15.71612445 37.72529778 44.01493333 47.15747555 69.16209778C796.33066667 918.3232 661.14218667 987.48871111 510.23644445 987.48871111z m0 0" fill="#8a8a8a" p-id="2643"></path></svg>