<?xml version="1.0" standalone="no"?><!DOCTYPE svg PUBLIC "-//W3C//DTD SVG 1.1//EN" "http://www.w3.org/Graphics/SVG/1.1/DTD/svg11.dtd"><svg t="1577763147931" class="icon" viewBox="0 0 1024 1024" version="1.1" xmlns="http://www.w3.org/2000/svg" p-id="2029" xmlns:xlink="http://www.w3.org/1999/xlink" width="48" height="48"><defs><style type="text/css"></style></defs><path d="M635.212421 601.97036c-23.847565 72.265349-58.534933 119.96048-58.534933 119.96048L518.142555 635.935074c35.410021 0 71.542696-33.964714 86.718419-49.863091-7.226535-9.394495-13.007763-27.460833-2.167961-59.98024C650.388144 476.228652 687.966126 397.459421 687.966126 319.412844c0-119.96048-80.937191-182.831334-175.604799-182.831334-94.667608 0-175.604799 62.870854-175.604799 182.831334 0 78.046577 36.855328 157.538462 85.995766 206.678899 10.839802 28.90614 4.335921 46.972477-5.058575 57.81228C431.424135 599.079746 469.002117 635.935074 505.857445 635.935074l-58.534933 85.995766s-35.410021-48.417784-58.534933-120.683134v-0.722653c-96.112915 36.132675-203.065632 97.558222-203.065631 158.261115v23.847565c0 85.995766 169.823571 105.50741 327.362032 105.50741 157.538462 0 325.194072-19.511644 325.194072-105.50741V758.786168c0-62.1482-104.062103-122.12844-203.065631-156.815808z" p-id="2030" fill="#707070"></path></svg>