<?xml version="1.0" standalone="no"?><!DOCTYPE svg PUBLIC "-//W3C//DTD SVG 1.1//EN" "http://www.w3.org/Graphics/SVG/1.1/DTD/svg11.dtd"><svg t="1576638495943" class="icon" viewBox="0 0 1024 1024" version="1.1" xmlns="http://www.w3.org/2000/svg" p-id="3249" xmlns:xlink="http://www.w3.org/1999/xlink" width="48" height="48"><defs><style type="text/css"></style></defs><path d="M562.224892 633.473609s5.715165-7.740288-5.715166-7.740288h-64.780398c-11.43954 0-7.625678 7.740288-7.625678 7.740288l25.926486 34.850739s-31.641651 117.018134-31.641651 123.514082c0 6.496971 40.654932 30.501688 45.486983 30.501687 4.828982 0 45.486984-24.692379 45.486984-30.501687 0-5.808286-31.643698-123.514081-31.643697-123.514082l24.506137-34.850739z m-46.258557-335.410096c-84.803431 0-154.691151 68.603471-154.691152 151.908782 0 52.226478 28.245298 97.134271 69.335135 124.18537-85.013209 33.296337-145.094586 115.929336-145.094586 211.249285 0 5.371334 0.345877 10.606569 0.76134 15.909342h0.067538c0 11.613502 9.600659 21.012569 21.408589 21.012569 11.809977 0 21.408589-9.398044 21.408589-21.012569 0-0.603751-0.138146-1.274016-0.207731-1.879814-0.481977-4.631484-0.689708-9.330506-0.759293-13.960966 0-101.831246 84.114746-184.398754 187.841156-184.398754s187.841156 82.566484 187.841155 184.398754c0 4.89959-0.345877 9.732665-0.761339 14.499225 0 0.268106-0.067538 0.469698-0.067539 0.737804 0 0.067538 0.067538 0.134053 0.067539 0.201591 0 0.199545 0 0.268106-0.067539 0.40216h0.067539c0.345877 11.277858 9.737782 20.406772 21.340027 20.406772s20.993127-9.0624 21.337981-20.406772h0.069585c0.413416-5.302773 0.691755-10.538007 0.691755-15.909342-0.207731-95.320972-60.289108-177.953971-145.232733-211.249285 41.089837-27.051099 71.683623-71.958892 71.683623-124.18537 0.001023-83.236749-72.234161-151.908782-157.039639-151.908782z m0 257.903861c-60.910255 0-110.285802-46.251394-110.285802-105.995079 0-59.809177 49.375547-111.63145 110.285802-111.63145s110.287849 51.888787 110.287849 111.63145c-0.069585 59.811224-49.377594 105.995079-110.287849 105.995079z m-4.291746-490.926032c-246.656703 0-446.612781 199.956078-446.612781 446.612781s199.956078 446.612781 446.612781 446.61278 446.612781-199.956078 446.61278-446.61278S758.331291 65.041342 511.674589 65.041342z m186.192609 280.414551c-0.483001-0.134053-1.034563-0.066515-1.518586 0.134053-0.621147-0.066515-1.242294-0.199545-1.934049-0.199545-12.085246 0-21.960151 8.524141-21.960151 20.406773 0 10.739599 8.010441 19.600407 18.507516 21.212114 1.864464 0.737804 4.281513 1.341554 4.351098 1.341554 33.907251 11.411911 56.626695 42.491767 56.558133 77.397764 0 40.142256-29.420053 73.436546-68.230987 80.419588-0.067538 0-0.067538 0.134053-0.138146 0.134053-13.052271 0.871857-23.204491 11.411911-23.134907 24.097838 0 13.090133 10.565636 22.555715 23.756053 23.025413 0.069585 0.066515 0.138146 1.276063 0.27527 1.341554 78.036307 7.854898 133.422755 73.16844 133.422755 152.580071 0 8.419763 4.978385 15.679098 12.215206 19.128662-74.730005 93.244684-189.57259 152.954601-318.364884 152.954601-128.669498 0-243.416915-59.59633-318.153061-152.688541 7.689123-3.296069 13.021571-10.591219 13.021572-19.078521 0-78.228689 56.682977-142.570089 136.551002-150.308331 0.141216-0.066515 0.211824-1.25662 0.283456-1.322111 13.499455-0.462534 24.312732-9.7869 24.312732-22.681582 0.069585-12.497639-10.31902-22.878057-23.678282-23.738657-0.069585 0-0.069585-0.132006-0.141216-0.132007-39.721677-6.877641-69.828368-39.676651-69.828369-79.221296-0.071631-34.385135 23.180955-65.00348 57.884339-76.244498 0.069585 0 2.543939-0.596588 4.452405-1.322112 10.743692-1.586125 18.942421-10.316973 18.942421-20.895912 0-11.7056-10.107195-20.103874-22.475897-20.103874-0.707105 0-1.341554 0.132006-1.979074 0.198522-0.49528-0.198521-1.060145-0.264013-1.555426-0.132007-58.026578 12.82919-97.748255 60.902068-97.748255 119.689986 0 43.049468 20.779256 80.939427 56.047504 103.226013-65.487503 24.625864-114.665553 81.415264-123.885541 149.712767-37.947264-61.933561-59.827597-134.777613-59.827597-212.733079 0-225.209228 182.567036-407.776264 407.776263-407.776264s407.776264 182.567036 407.776264 407.776264c0 77.886905-21.841447 150.669558-59.725266 212.567303-8.841366-69.553099-56.971549-127.419018-121.112382-152.478763 34.458813-22.62223 54.762231-61.087287 54.762231-104.786555 0.005117-59.677171-38.805818-108.47762-95.504144-121.501238zM544.553417 670.415986l23.10523 80.430844 8.660241-13.468756c1.629103-2.537799 1.76111-6.765077 0.279362-9.419534l-32.044833-57.542554z" fill="#ffffff" p-id="3250"></path></svg>