<?xml version="1.0" standalone="no"?><!DOCTYPE svg PUBLIC "-//W3C//DTD SVG 1.1//EN" "http://www.w3.org/Graphics/SVG/1.1/DTD/svg11.dtd"><svg t="1578734339175" class="icon" viewBox="0 0 1024 1024" version="1.1" xmlns="http://www.w3.org/2000/svg" p-id="3085" xmlns:xlink="http://www.w3.org/1999/xlink" width="48" height="48"><defs><style type="text/css"></style></defs><path d="M66.56 473.6c-5.12 5.12-10.24 12.8-10.24 23.04 0 7.68 2.56 15.36 10.24 23.04l158.72 163.84c5.12 2.56 12.8 7.68 23.04 7.68 7.68 0 17.92-2.56 23.04-10.24l166.4-163.84c5.12-5.12 10.24-12.8 10.24-23.04s-2.56-17.92-10.24-23.04l-166.4-161.28c-5.12-5.12-12.8-10.24-23.04-10.24-7.68 0-15.36 2.56-23.04 10.24l-158.72 163.84zM967.68 81.92c0-7.68-2.56-15.36-10.24-23.04-5.12-5.12-15.36-10.24-23.04-10.24h-253.44c-7.68 0-15.36 2.56-23.04 10.24-5.12 5.12-10.24 15.36-10.24 23.04v64h-143.36c-7.68 0-15.36 2.56-23.04 10.24-5.12 5.12-10.24 15.36-10.24 23.04v640c0 7.68 2.56 15.36 10.24 23.04 5.12 5.12 15.36 10.24 23.04 10.24h143.36V947.2c0 7.68 2.56 15.36 10.24 23.04 5.12 5.12 15.36 10.24 23.04 10.24h253.44c7.68 0 15.36-2.56 23.04-10.24 5.12-5.12 10.24-15.36 10.24-23.04v-207.36c0-7.68-2.56-15.36-10.24-23.04-5.12-5.12-15.36-10.24-23.04-10.24h-253.44c-7.68 0-15.36 2.56-23.04 10.24-5.12 5.12-10.24 15.36-10.24 23.04v15.36h-64c-7.68 0-15.36-2.56-23.04-10.24-5.12-5.12-10.24-15.36-10.24-23.04V256c0-7.68 2.56-15.36 10.24-23.04 5.12-5.12 15.36-10.24 23.04-10.24h64v64c0 7.68 2.56 15.36 10.24 23.04 5.12 5.12 15.36 10.24 23.04 10.24h253.44c7.68 0 15.36-2.56 23.04-10.24 5.12-5.12 10.24-15.36 10.24-23.04v-204.8z" fill="#007AFF" p-id="3086"></path></svg>