<?xml version="1.0" standalone="no"?><!DOCTYPE svg PUBLIC "-//W3C//DTD SVG 1.1//EN" "http://www.w3.org/Graphics/SVG/1.1/DTD/svg11.dtd"><svg t="1578734540484" class="icon" viewBox="0 0 1024 1024" version="1.1" xmlns="http://www.w3.org/2000/svg" p-id="5450" xmlns:xlink="http://www.w3.org/1999/xlink" width="48" height="48"><defs><style type="text/css"></style></defs><path d="M516.83 966.3809375c-247.374375 0-447.8690625-200.495625-447.8690625-447.8690625 0-247.335 200.495625-447.8334375 447.8690625-447.8334375 247.335 0 447.8334375 200.495625 447.8334375 447.8334375 0 247.374375-200.495625 447.8690625-447.8334375 447.8690625l0 0zM784.131875 665.6515625l-293.2453125-86.26875c0-0.358125 0.2071875-0.5990625 0.2071875-0.93375l0-314.08875c0-21.67125-18.4546875-39.223125-41.2021875-39.223125-22.7709375 0-41.14125 17.5546875-41.14125 39.223125l0 314.08875c0 9.016875 3.770625 16.9246875 9.106875 23.53125-4.8571875 19.8196875 6.5803125 40.1184375 27.2690625 46.21125l314.3296875 92.5115625c21.714375 6.3646875 44.8209375-5.2453125 51.639375-25.9396875 6.789375-20.7571875-5.2790625-42.75-26.9671875-49.1128125l0 0z" p-id="5451" fill="#007AFF"></path></svg>