<?xml version="1.0" standalone="no"?><!DOCTYPE svg PUBLIC "-//W3C//DTD SVG 1.1//EN" "http://www.w3.org/Graphics/SVG/1.1/DTD/svg11.dtd"><svg t="1575618752828" class="icon" viewBox="0 0 1024 1024" version="1.1" xmlns="http://www.w3.org/2000/svg" p-id="24677" xmlns:xlink="http://www.w3.org/1999/xlink" width="48" height="48"><defs><style type="text/css"></style></defs><path d="M421.3 557.8l154 154.5-211 57.5 57-212z m538-46.2c0 247-200.8 447.7-447.7 447.7-247 0-447.7-200.8-447.7-447.7 0-247 200.7-447.7 447.7-447.7s447.7 200.7 447.7 447.7z m-56.1 0c0-38.7-5.7-76.1-16.1-111.4L603.5 684.6 449 530.1l316.5-316.5c-68.4-58.3-157-93.6-253.8-93.6-216.1 0-391.6 175.5-391.6 391.6 0 216.1 175.5 391.6 391.6 391.6 216 0 391.5-175.5 391.5-391.6z" p-id="24678" fill="#007AFF"></path></svg>