<?xml version="1.0" standalone="no"?><!DOCTYPE svg PUBLIC "-//W3C//DTD SVG 1.1//EN" "http://www.w3.org/Graphics/SVG/1.1/DTD/svg11.dtd"><svg t="1577599354387" class="icon" viewBox="0 0 1024 1024" version="1.1" xmlns="http://www.w3.org/2000/svg" p-id="5143" xmlns:xlink="http://www.w3.org/1999/xlink" width="48" height="48"><defs><style type="text/css"></style></defs><path d="M564.736 318.464c-83.456 0-151.552 68.096-151.552 151.552s68.096 151.552 151.552 151.552 151.552-68.096 151.552-151.552c0-83.968-68.096-151.552-151.552-151.552z" fill="#FF3EC9" p-id="5144"></path><path d="M512 65.024c-246.784 0-446.976 200.192-446.976 446.976 0 246.784 200.192 446.976 446.976 446.976 246.784 0 446.976-200.192 446.976-446.976 0-246.784-200.192-446.976-446.976-446.976z m52.736 621.056c-53.248 0-101.888-19.456-139.776-51.712l-31.232 31.232 51.2 51.2-45.568 45.568-51.2-51.2-59.392 59.392-45.568-45.568 59.392-59.392-54.272-54.272 45.568-45.568L348.16 620.032l34.304-34.304c-21.504-33.792-33.792-73.216-33.792-115.712 0-119.296 96.768-216.064 216.064-216.064s216.064 96.768 216.064 216.064c0 118.784-96.768 216.064-216.064 216.064z" fill="#FF3EC9" p-id="5145"></path></svg>