<?xml version="1.0" standalone="no"?><!DOCTYPE svg PUBLIC "-//W3C//DTD SVG 1.1//EN" "http://www.w3.org/Graphics/SVG/1.1/DTD/svg11.dtd"><svg t="1578970901222" class="icon" viewBox="0 0 1024 1024" version="1.1" xmlns="http://www.w3.org/2000/svg" p-id="1964" xmlns:xlink="http://www.w3.org/1999/xlink" width="48" height="48"><defs><style type="text/css"></style></defs><path d="M836.7 582.2c-43.3 13.1-483.6 140.5-483.6 140.5S231.2 763.5 141 653.5l100.1-41.6c17.4 5.9 33.6 5.4 55.1-1.5L410 582.2 239.3 329.4s-34.6-54.9 85.3-28.1c0 0 216.9 166.1 256 196.6 0 0 20 11.4 56.9 0l170.7-56.2s115.6-35.3 142.2 28.1c28 66.5-70.5 99.3-113.7 112.4z m-714.9 51c-44.6-49.8-53.1-79.1-53.1-79.1s9.2-60.9 85.3 0c22.2 17.8 45.8 30 60.8 40l-93 39.1z" p-id="1965" fill="#1afa29"></path></svg>