<?xml version="1.0" standalone="no"?><!DOCTYPE svg PUBLIC "-//W3C//DTD SVG 1.1//EN" "http://www.w3.org/Graphics/SVG/1.1/DTD/svg11.dtd"><svg t="1575618412712" class="icon" viewBox="0 0 2311 1024" version="1.1" xmlns="http://www.w3.org/2000/svg" p-id="16808" xmlns:xlink="http://www.w3.org/1999/xlink" width="108.328125" height="48"><defs><style type="text/css"></style></defs><path d="M962.763861 0.951369c-282.277722 0-511.423297 229.145574-511.423296 510.884955 0 281.738102 229.145574 510.883676 510.883676 510.883676S1473.110475 793.574426 1473.110475 511.836324c0.538342-281.739381-228.60979-510.884955-510.346614-510.884955z m0 957.638201c-246.15001 0-446.753247-200.603237-446.753246-446.753246S716.099805 65.083077 962.763861 65.083077c246.658941 0 446.746853 200.601958 446.746854 446.753247s-200.600679 446.753247-446.746854 446.753246z m0 0" p-id="16809" fill="#007AFF"></path><path d="M760.98548 298.254066h407.314925c44.000799 0 67.077882 23.611588 67.077882 67.617502v272.611869c0 44.54042-33.808112 65.469251-68.691628 67.082997-23.614146 1.067732-203.388292 1.608631-203.388292 1.608631L827.528856 841.335944V705.028092h-68.155844c-35.415465 0-67.617502-24.151209-67.617502-69.226134V364.797443c0-42.397283 24.14993-66.543377 69.22997-66.543377z m-0.539621 67.617502v271.004516h405.164116V365.871568H760.445859z m79.426494 159.915605h247.39037v41.857662H839.872353v-41.857662z m0-88.541219h247.39037v41.857662H839.872353V437.245954z m0 0" p-id="16810" fill="#007AFF"></path></svg>