<?xml version="1.0" standalone="no"?><!DOCTYPE svg PUBLIC "-//W3C//DTD SVG 1.1//EN" "http://www.w3.org/Graphics/SVG/1.1/DTD/svg11.dtd"><svg t="1575618774674" class="icon" viewBox="0 0 1024 1024" version="1.1" xmlns="http://www.w3.org/2000/svg" p-id="25489" xmlns:xlink="http://www.w3.org/1999/xlink" width="48" height="48"><defs><style type="text/css"></style></defs><path d="M702.80192 452.39808a21.93408 21.93408 0 0 0-22.00064 22.00064v166.4c0 24.40192-19.99872 44.40064-44.40064 44.40064H392.40192c-24.40192 0-44.40064-19.99872-44.40064-44.40064V396.8c0-24.40192 19.99872-44.40064 44.40064-44.40064h165.20192c12.40064 0 22.00064-9.99936 22.00064-22.00064s-9.99936-22.00064-22.00064-22.00064H392.40192c-48.79872 0-88.80128 39.99744-88.80128 88.80128v243.99872c0 48.79872 40.00256 88.80128 88.80128 88.80128h243.99872c48.79872 0 88.80128-39.99744 88.80128-88.80128v-166.4a22.36416 22.36416 0 0 0-22.4-22.4z" p-id="25490" fill="#007AFF"></path><path d="M576.39936 467.99872c8.80128 7.59808 23.19872 7.59808 31.20128-1.19808l110.80192-121.99936c7.59808-8.80128 7.59808-23.19872-1.19808-31.20128-8.80128-8.80128-22.00064-7.59808-31.20128 1.19808l-110.80192 121.99936c-7.6032 8.80128-7.6032 23.20384 1.19808 31.20128z m-161.9968 116.4032h199.59808a21.93408 21.93408 0 0 0 22.00064-22.00064 21.93408 21.93408 0 0 0-22.00064-22.00064H414.40256c-12.40064 0-22.00064 9.99936-22.00064 22.00064s9.99936 22.00064 22.00064 22.00064z m0-88.80128h121.99936a21.93408 21.93408 0 0 0 22.00064-22.00064 21.93408 21.93408 0 0 0-22.00064-22.00064H414.40256c-12.40064 0-22.00064 9.99936-22.00064 22.00064s9.99936 22.00064 22.00064 22.00064z" p-id="25491" fill="#007AFF"></path><path d="M512 112c-220.40064 0-400 179.59936-400 400 0 220.8 179.59936 400 400 400s400-179.2 400-400S732.40064 112 512 112z m0 749.99808c-192.79872 0-349.99808-156.8-349.99808-349.99808S318.80192 162.00192 512 162.00192c192.79872 0 349.99808 156.8 349.99808 349.99808 0 192.79872-157.19936 349.99808-349.99808 349.99808z" p-id="25492" fill="#007AFF"></path></svg>