<?xml version="1.0" standalone="no"?><!DOCTYPE svg PUBLIC "-//W3C//DTD SVG 1.1//EN" "http://www.w3.org/Graphics/SVG/1.1/DTD/svg11.dtd"><svg t="1577690487755" class="icon" viewBox="0 0 1024 1024" version="1.1" xmlns="http://www.w3.org/2000/svg" p-id="1894" xmlns:xlink="http://www.w3.org/1999/xlink" width="48" height="48"><defs><style type="text/css"></style></defs><path d="M1002.395869 381.482722L845.810045 285.18683V42.190103A43.403951 43.403951 0 0 0 801.215095 0.01815H222.623745a43.382951 43.382951 0 0 0-44.57495 42.191953v243.101727L21.316971 381.733721A44.63695 44.63695 0 0 0 0.001995 419.829679v559.407371A44.49095 44.49095 0 0 0 44.324945 1024H979.659895a44.49095 44.49095 0 0 0 44.32295-44.76295V420.060678a45.702949 45.702949 0 0 0-21.586976-38.597956zM364.998585 112.865023H658.860255a53.978939 53.978939 0 0 1 0 107.956879H364.998585a53.978939 53.978939 0 0 1 0-107.956879z m0 182.979795H658.860255a53.978939 53.978939 0 0 1 0 107.956879H364.998585a53.978939 53.978939 0 0 1 0-107.956879zM506.203427 693.190372L66.87392 455.857638l111.258875-67.457924v53.66494l328.091631 166.177813 339.606619-167.577812V388.420714l111.237875 67.457924z m0 0" p-id="1895" fill="#ffffff"></path></svg>