<?xml version="1.0" standalone="no"?><!DOCTYPE svg PUBLIC "-//W3C//DTD SVG 1.1//EN" "http://www.w3.org/Graphics/SVG/1.1/DTD/svg11.dtd"><svg t="1575966744978" class="icon" viewBox="0 0 1024 1024" version="1.1" xmlns="http://www.w3.org/2000/svg" p-id="3445" xmlns:xlink="http://www.w3.org/1999/xlink" width="48" height="48"><defs><style type="text/css"></style></defs><path d="M916.48 532.992h53.248v44.032H916.48zM530.432 915.968h52.736v65.024h-52.736zM73.728 980.992h358.4v-358.4h-358.4v358.4z m55.296-303.104h247.808v247.808H129.024v-247.808zM611.328 62.464v358.4h358.4v-358.4h-358.4z m303.616 303.104h-248.32V117.248h248.32v248.32zM530.432 578.048h52.736v64.512h-52.736zM631.296 915.968h53.248v65.024h-53.248zM130.048 589.312h58.88v-56.32h53.248V465.92H186.368v65.536h-56.32V465.92h-56.32v67.072h56.32zM476.672 178.688h45.056v57.344h-45.056zM521.728 120.832h45.056v57.856h-45.056zM521.728 236.032h45.056v58.88h-45.056zM432.128 62.464h-358.4v358.4h358.4v-358.4zM376.32 365.568H129.024V117.248h247.808v248.32zM476.672 62.464h45.056v57.856h-45.056zM419.84 531.456H364.032V465.92H308.224v67.072h55.808v56.32h58.88v-56.32h53.76V465.92H419.84zM476.672 295.936h45.056v57.856h-45.056zM476.672 642.56h53.76v52.736H476.672zM521.728 411.648h44.544V353.792h-44.544v53.76h-45.056V465.92h45.056zM476.672 870.4h53.76v43.52H476.672zM857.6 915.456h45.056v66.048h-45.056zM699.392 642.56H752.64v52.736h-53.248zM476.672 534.528h53.76v43.52H476.672zM916.48 868.864h53.248v44.032H916.48zM699.392 534.528H752.64v43.52h-53.248zM916.48 757.248h53.248v44.032H916.48zM857.6 534.528h-51.712v43.52h51.712v64.512h-51.712v52.736h51.712v62.976h-51.712v-62.976H752.64v65.024h53.248v40.448H752.64V870.4h53.248v-68.608h53.76v-40.448h42.496v-66.048h-42.496v-51.2h42.496v-66.048h-42.496v-43.52h42.496V468.48h-44.544zM752.64 915.968h53.248v65.024H752.64zM699.392 870.4H752.64v43.52h-53.248zM631.296 470.016h53.248v64.512h-53.248zM805.888 870.4h53.76v43.52h-53.76zM752.64 470.016h53.248v64.512H752.64zM916.48 641.024h53.248v53.76H916.48z" fill="#ffffff" p-id="3446"></path><path d="M185.344 174.592h134.656v134.656H185.344zM185.344 733.696h134.656v134.656H185.344zM722.944 174.592h134.656v134.656h-134.656zM583.168 534.528h48.128v43.52h-48.128zM684.544 642.048v-64h-53.248v64zM583.168 642.56h48.128v52.736h-48.128z" fill="#ffffff" p-id="3447"></path><path d="M631.296 758.272h-48.128v-62.976h-52.736v62.976H476.672v43.52h53.76V870.4h52.736v-68.608h48.128V870.4h53.248v-69.632h-53.248v-40.448h53.248v-65.024h-53.248v62.976z m-48.128 42.496h-52.736v-40.448h52.736v40.448z" fill="#ffffff" p-id="3448"></path></svg>