<?xml version="1.0" standalone="no"?><!DOCTYPE svg PUBLIC "-//W3C//DTD SVG 1.1//EN" "http://www.w3.org/Graphics/SVG/1.1/DTD/svg11.dtd"><svg t="1577947533721" class="icon" viewBox="0 0 1024 1024" version="1.1" xmlns="http://www.w3.org/2000/svg" p-id="3197" xmlns:xlink="http://www.w3.org/1999/xlink" width="48" height="48"><defs><style type="text/css"></style></defs><path d="M561.4 492.9h-90.3c-8.6 0-12.4 3.2-11.3 9.6v78.1c-1.1 6.4 2.7 9.6 11.3 9.6h90.3c7.5 1.1 11.3-3.2 11.3-12.8v-71.7c0-8.6-3.7-12.8-11.3-12.8z" fill="#007AFF" p-id="3198"></path><path d="M531 35C277.1 35 71 239.9 69 493.3V959h462c255.2 0 462-206.8 462-462S786.2 35 531 35zM388.9 695.3c-1.1 10.6-8.6 17-22.6 19.1-14-1.1-21-6.9-21-17.5v-263c0-12.8 7-19.7 21-20.7 14 0 21.5 6.4 22.6 19.1v263zM376 366.9c-7.5-8.5-5.9-17 4.8-25.5 12.9-7.4 23.6-7.4 32.3 0 2.1 4.3 4.8 8 8.1 11.2 24.7 22.3 31.7 38.3 21 47.8-10.8 11.7-22.1 12.8-33.9 3.2-15.1-13.8-25.9-26.1-32.3-36.7z m69.3 264.7c-20.4 1.1-30.1-7.4-29-25.5v-126c-1.1-20.2 7.5-30.3 25.8-30.3h143.5c21.5-1 31.7 9.6 30.6 31.9v122.8c1.1 19.1-10.2 28.2-33.9 27.1h-137z m206.5 78.1c-22.6 0-41.4-2.1-56.4-6.4-11.8-5.3-16.7-14.3-14.5-27.1 4.3-10.6 12.9-14.9 25.8-12.8 25.8 4.3 39.2 3.2 40.3-3.2V406.8c-1.1-6.4-4.8-10.1-11.3-11.2h-150c-11.8 0-17.7-8-17.7-23.9 1.1-12.8 8.1-19.7 21-20.7h167.7c23.6-1 34.9 11.2 33.9 36.7V673c0.9 24.4-12 36.7-38.8 36.7z" fill="#007AFF" p-id="3199"></path></svg>