<?xml version="1.0" standalone="no"?><!DOCTYPE svg PUBLIC "-//W3C//DTD SVG 1.1//EN" "http://www.w3.org/Graphics/SVG/1.1/DTD/svg11.dtd"><svg t="1577948112478" class="icon" viewBox="0 0 1024 1024" version="1.1" xmlns="http://www.w3.org/2000/svg" p-id="5495" xmlns:xlink="http://www.w3.org/1999/xlink" width="48" height="48"><defs><style type="text/css"></style></defs><path d="M415.288889 466.488889h136.533333v147.911111H415.288889z" p-id="5496" fill="#007AFF"></path><path d="M512 0C227.555556 0 0 227.555556 0 512v512h568.888889v-5.688889c256-28.444444 455.111111-244.622222 455.111111-506.311111 0-284.444444-227.555556-512-512-512zM273.066667 802.133333H227.555556V329.955556h45.511111v472.177777z m5.688889-563.2l39.822222-17.066666c28.444444 34.133333 56.888889 73.955556 79.644444 113.777777l-39.822222 22.755556c-22.755556-45.511111-51.2-85.333333-79.644444-119.466667z m91.022222 420.977778V420.977778h227.555555v233.244444h-227.555555z m369.777778 68.266667c0 45.511111-22.755556 68.266667-73.955556 68.266666h-68.266667l-11.377777-39.822222h68.266666c22.755556 0 34.133333-11.377778 34.133334-39.822222V307.2H449.422222v-45.511111H739.555556v466.488889z" p-id="5497" fill="#007AFF"></path></svg>