<?xml version="1.0" standalone="no"?><!DOCTYPE svg PUBLIC "-//W3C//DTD SVG 1.1//EN" "http://www.w3.org/Graphics/SVG/1.1/DTD/svg11.dtd"><svg t="1577414922761" class="icon" viewBox="0 0 1024 1024" version="1.1" xmlns="http://www.w3.org/2000/svg" p-id="2695" xmlns:xlink="http://www.w3.org/1999/xlink" width="48" height="48"><defs><style type="text/css"></style></defs><path d="M733.82 294.764h-42.45a14.947 14.947 0 0 0 0 29.695h42.25a41.654 41.654 0 0 1 41.455 41.654v45.64H264.67v-45.44a41.654 41.654 0 0 1 41.653-41.654h42.252a14.947 14.947 0 0 0 0-29.895h-42.451a71.548 71.548 0 0 0-71.549 71.548v348.973a71.548 71.548 0 0 0 71.549 71.35H733.82a71.548 71.548 0 0 0 71.35-71.35V366.312a71.548 71.548 0 0 0-71.35-71.548z m0 462.175H306.124a41.654 41.654 0 0 1-41.654-41.454V441.847h510.804v273.438a41.654 41.654 0 0 1-41.454 42.052z" fill="#ffffff" p-id="2696"></path><path d="M389.63 367.309a14.947 14.947 0 0 0 29.895 0V252.114a14.947 14.947 0 0 0-29.895 0v115.195z m72.944-42.65h115.394a14.947 14.947 0 0 0 0-29.895H462.574a14.947 14.947 0 0 0 0 29.895z m170.8 173.59a14.748 14.748 0 0 0-11.161 5.181L487.486 658.485l-71.15-60.587a14.748 14.748 0 0 0-9.765-3.787 14.947 14.947 0 0 0-14.948 14.948 14.748 14.748 0 0 0 5.182 11.16l93.471 81.315 154.258-177.576a14.748 14.748 0 0 0 3.787-9.766 14.947 14.947 0 0 0-14.948-15.944z m1.992-115.993a14.947 14.947 0 0 0 14.948-14.947V252.114a14.947 14.947 0 1 0-29.895 0v115.195a14.947 14.947 0 0 0 14.947 14.947z" fill="#ffffff" p-id="2697"></path></svg>