<?xml version="1.0" standalone="no"?><!DOCTYPE svg PUBLIC "-//W3C//DTD SVG 1.1//EN" "http://www.w3.org/Graphics/SVG/1.1/DTD/svg11.dtd"><svg t="1577431031154" class="icon" viewBox="0 0 1024 1024" version="1.1" xmlns="http://www.w3.org/2000/svg" p-id="2592" xmlns:xlink="http://www.w3.org/1999/xlink" width="48" height="48"><defs><style type="text/css"></style></defs><path d="M290.909091 870.4c-5.171717 0-9.955556-2.327273-13.317172-6.206061-3.361616-3.878788-4.654545-9.050505-3.878788-14.222222l40.59798-236.864646L142.222222 445.543434c-4.783838-4.654545-6.464646-11.507071-4.395959-17.842424s7.49899-10.860606 14.092929-11.894949l237.769697-34.521213 106.278788-215.531313c2.973737-5.947475 9.050505-9.69697 15.644444-9.696969s12.670707 3.749495 15.644445 9.696969L633.535354 381.284848l237.898989 34.521213c6.593939 0.905051 12.024242 5.559596 14.09293 11.894949 2.068687 6.335354 0.387879 13.187879-4.39596 17.842424L709.042424 613.236364l40.59798 236.864646c1.163636 6.593939-1.551515 13.187879-6.981818 17.066667s-12.412121 4.39596-18.359596 1.292929l-212.686869-111.838384-212.686868 111.838384c-2.456566 1.292929-5.171717 1.939394-8.016162 1.939394zM191.870707 445.155556L345.212121 594.618182c4.137374 4.008081 5.947475 9.826263 5.042424 15.385858l-36.20202 211.006061 189.543435-99.555556c5.042424-2.715152 11.119192-2.715152 16.161616 0l189.543434 99.684849-36.20202-211.006061c-0.905051-5.688889 0.905051-11.377778 5.042424-15.385858l153.341414-149.462627-211.911111-30.771717c-5.688889-0.775758-10.60202-4.39596-13.058586-9.567676l-94.771717-192-94.771717 192c-2.585859 5.171717-7.49899 8.662626-13.058586 9.567676l-212.040404 30.642425z m0 0" p-id="2593" fill="#007AFF"></path></svg>